<?xml version="1.0" encoding="utf-8"?>
<!-- Generator: Adobe Illustrator 26.0.1, SVG Export Plug-In . SVG Version: 6.00 Build 0)  -->
<svg version="1.1" id="eS1ABtXM7fO1" shape-rendering="geometricPrecision" text-rendering="geometricPrecision"
	 xmlns="http://www.w3.org/2000/svg" xmlns:xlink="http://www.w3.org/1999/xlink" x="0px" y="0px" viewBox="0 0 81.1 124.6"
	 style="enable-background:new 0 0 81.1 124.6;" xml:space="preserve">
<style type="text/css">
	.st0{fill:#FFFFFF;stroke:#000000;stroke-width:4;}
	.st1{display:none;}
	.st2{display:inline;fill:#1C00C9;stroke:#000000;stroke-width:4;}
	.st3{display:inline;fill:#FFD700;stroke:#000000;stroke-width:4;}
	.st4{fill:#AF0AFF;stroke:#000000;stroke-width:4;}
	.st5{fill:#F0FF35;stroke:#000000;stroke-width:4;}
	.st6{fill:#391FFF;stroke:#000000;stroke-width:4;}
	.st7{fill:none;stroke:#000000;stroke-width:4;stroke-linecap:round;stroke-linejoin:round;}
</style>
<path class="st0" d="M7.8,31.5h65.5c3.2,0,5.8,2.2,5.8,4.9v81.3c0,2.7-2.6,4.9-5.8,4.9H7.8c-3.2,0-5.8-2.2-5.8-4.9V36.4
	C2,33.7,4.6,31.5,7.8,31.5L7.8,31.5z"/>
<g class="st1">
	<path class="st2" d="M7.8,78.2h65.5c3.2,0,5.8,1.1,5.8,2.4v39.6c0,1.3-2.6,2.4-5.8,2.4H7.8c-3.2,0-5.8-1.1-5.8-2.4V80.6
		C2,79.3,4.6,78.2,7.8,78.2L7.8,78.2z"/>
	<path class="st3" d="M7.8,32.7h65.5c3.2,0,5.8,1.1,5.8,2.4v39.6c0,1.3-2.6,2.4-5.8,2.4H7.8C4.6,77.1,2,76,2,74.7V35.1
		C2,33.8,4.6,32.7,7.8,32.7L7.8,32.7z"/>
</g>
<g>
	<path class="st4" d="M7.8,31.5h65.5c3.2,0,5.8,0.7,5.8,1.6V60c0,0.9-2.6,1.6-5.8,1.6H7.8C4.6,61.6,2,60.8,2,60V33.1
		C2,32.2,4.6,31.5,7.8,31.5L7.8,31.5z"/>
	<path class="st5" d="M7.8,62.3h65.5c3.2,0,5.8,0.7,5.8,1.6v26.2c0,0.9-2.6,1.6-5.8,1.6H7.8C4.6,91.7,2,91,2,90.1V63.9
		C2,63,4.6,62.3,7.8,62.3L7.8,62.3z"/>
	<path class="st6" d="M7.8,93.2h65.5c3.2,0,5.8,0.7,5.8,1.6V121c0,0.9-2.6,1.6-5.8,1.6H7.8c-3.2,0-5.8-0.7-5.8-1.6V94.8
		C2,93.9,4.6,93.2,7.8,93.2L7.8,93.2z"/>
</g>
<path class="st7" d="M21.2,31.7c0,0,9.8-30.2,18.5-29.7s19.7,29.7,19.7,29.7"/>
</svg>
