<svg xmlns="http://www.w3.org/2000/svg" xmlns:xlink="http://www.w3.org/1999/xlink" id="enJBSzQbpXc1"
    shape-rendering="geometricPrecision" text-rendering="geometricPrecision" viewBox="241.02 104.63 52.33 88.01">
    <line x1="7.002587" y1="-45.510943" x2="0.299341" y2="10.200341" transform="translate(260.154306 180.940943)"
        fill="none" stroke="#010101" stroke-width="3" />
    <ellipse rx="6.322493" ry="12.332168" transform="translate(267.189223 142.283547)" fill="#fe7d60" stroke="#000"
        stroke-width="3" />
    <ellipse rx="6.322493" ry="12.332168" transform="translate(267.189223 118.46233)" fill="#fe7d60" stroke="#000"
        stroke-width="3" />
    <ellipse rx="6.322493" ry="12.332168" transform="matrix(.707107 0.707107-.707107 0.707107 278.662722 121.839163)"
        fill="#fe7d60" stroke="#000" stroke-width="3" />
    <ellipse rx="6.322493" ry="12.332168" transform="matrix(.707107 0.707107-.707107 0.707107 258.6 139.500678)"
        fill="#fe7d60" stroke="#000" stroke-width="3" />
    <ellipse rx="6.322493" ry="12.332168" transform="matrix(-.707107 0.707107-.707107-.707107 276.996107 141.424878)"
        fill="#fe7d60" stroke="#000" stroke-width="3" />
    <ellipse rx="6.322493" ry="12.332168" transform="matrix(-.707107 0.707107-.707107-.707107 256.751726 121.839163)"
        fill="#fe7d60" stroke="#000" stroke-width="3" />
    <ellipse rx="6.322493" ry="12.332168" transform="matrix(0-1 1 0 279.521391 130.794498)" fill="#fe7d60" stroke="#000"
        stroke-width="3" />
    <ellipse rx="6.322493" ry="12.332168" transform="matrix(0 1-1 0 254.857055 129.951379)" fill="#fe7d60" stroke="#000"
        stroke-width="3" />
    <ellipse rx="12.364498" ry="12.364498" transform="translate(267.156893 130.794498)" fill="#f2e423" stroke="#000"
        stroke-width="3" />
</svg>