<svg xmlns="http://www.w3.org/2000/svg" xmlns:xlink="http://www.w3.org/1999/xlink" id="enPHxEQtrXM1"
    shape-rendering="geometricPrecision" text-rendering="geometricPrecision" viewBox="84.7 0 193.42 303.03">
    <ellipse rx="85.7" ry="44.1" transform="translate(172.9 256.43)" fill="#e8ba00" stroke="#0f0707" stroke-width="5" />
    <circle r="48.6" transform="translate(171 76.83)" fill="#ffd767" stroke="#230707" stroke-width="3.66"
        stroke-miterlimit="4.58" />
    <circle r="6.4" transform="translate(187.9 83.33)" fill="#153832" stroke="#fff" />
    <circle r="6.4" transform="translate(156.1 83.33)" fill="#153832" stroke="#fff" />
    <path d="M118.1,56.33c25.4,22.4,86,17.5,105.4-5-68.1-76.4-73.4-46.3-77-30.5s-30.8,26.9-28.4,35.5Z" fill="#f0f0f2"
        stroke="#070404" stroke-width="3" />
    <path d="M157.8,230.53c18.6-8.5,10,36-.6,36.3-19.2,2.6-18.5-18.1.6-36.3Z" fill="#ffd767" stroke="#000"
        stroke-width="4" stroke-linecap="round" stroke-linejoin="round" />
    <path d="M180.4,231.73c20.9-8.2,17,35.2,5,35.5-22.2-2-1.3-31.9-5-35.5Z" fill="#ffd767" stroke="#000"
        stroke-width="4" stroke-linecap="round" stroke-linejoin="round" />
    <path
        d="M125,135.73l.3,93.3c.022,6.484,5.296,11.722,11.78,11.7c0,0,0,0,0,0h66.32c6.442.006,11.696-5.159,11.8-11.6l.9-94.1"
        fill="none" stroke="#000" stroke-width="4" stroke-linecap="round" stroke-linejoin="round" />
    <path d="M125.2,167.23c-9.5,11.8-28-.5-30.3-22.7-7-5.5,4.4-20.1,30.3,22.7Z" fill="#ffd767" stroke="#000"
        stroke-width="5" />
    <path d="M217.3,166.43c25.3,32.3,75.1,11.9,54.4-.8-17,6.8-51.754-8.8-54.4.8Z" fill="#ffd767" stroke="#000"
        stroke-width="3" stroke-linecap="round" stroke-linejoin="round" />
    <path
        d="M126.78,135.43h87.54v91.7c.05,7.229-5.77,13.13-12.999,13.18c0,0,0,0-.001,0h-61.54c-7.229-.05-13.05-5.95-13-13.179c0,0,0,0,0-.001v-91.7Z"
        fill="#ffffff" />


    <path d="M152,99.53c6.2,17.3,31.4,17.9,38,0" fill="none" stroke="#cc2a09" stroke-width="3" stroke-linecap="round"
        stroke-linejoin="round" />
</svg>