<?xml version="1.0" encoding="utf-8"?>
<!-- Generator: Adobe Illustrator 24.0.1, SVG Export Plug-In . SVG Version: 6.00 Build 0)  -->
<svg version="1.1" id="圖層_1" xmlns="http://www.w3.org/2000/svg" xmlns:xlink="http://www.w3.org/1999/xlink" x="0px" y="0px"
	 viewBox="0 0 321.1 303" style="enable-background:new 0 0 321.1 303;" xml:space="preserve">
<style type="text/css">
	.st0{display:none;}
	.st1{display:inline;fill:#E8BA00;stroke:#0F0707;stroke-width:5;}
	.st2{display:inline;fill:#FFD767;stroke:#000000;stroke-width:4;stroke-linecap:round;stroke-linejoin:round;}
	.st3{display:inline;fill:none;stroke:#000000;stroke-width:4;stroke-linecap:round;stroke-linejoin:round;}
	.st4{display:inline;fill:#FFFFFF;}
	.st5{display:inline;fill:#3E78FF;}
	.st6{fill:#E8BA00;stroke:#0F0707;stroke-width:4;}
	.st7{fill:none;stroke:#0F0707;stroke-width:4;}
	.st8{fill:#F0F0F2;stroke:#070404;stroke-width:4;}
	.st9{fill:#FFF7BB;stroke:#230707;stroke-width:4;stroke-miterlimit:4.58;}
	.st10{stroke:#0F0707;stroke-width:4;}
	.st11{fill:#FFFFFF;stroke:#0F0707;stroke-width:4;}
</style>
<g id="圖層_1_1_" class="st0">
	<ellipse class="st1" cx="-168.2" cy="256.4" rx="85.7" ry="44.1"/>
	<path class="st2" d="M-183.3,230.5c18.6-8.5,10,36-0.6,36.3C-203.1,269.4-202.4,248.7-183.3,230.5z"/>
	<path class="st2" d="M-160.7,231.7c20.9-8.2,17,35.2,5,35.5C-177.9,265.2-157,235.3-160.7,231.7z"/>
	<path class="st3" d="M-216.1,135.7l0.3,93.3c0,6.5,5.3,11.7,11.8,11.7l0,0h66.3c6.4,0,11.7-5.2,11.8-11.6l0.9-94.1"/>
	<path class="st4" d="M-214.3,135.4h87.5v91.7c0,7.2-5.8,13.1-13,13.2l0,0h-61.5c-7.2,0-13-6-13-13.2l0,0V135.4z"/>
	<path class="st5" d="M-213.9,226.9h87.1l0,0v0.4c0,7.2-5.8,13-13,13l0,0h-61.1c-7.2,0-13-5.8-13-13l0,0v-60.4l0,0V226.9z"/>
</g>
<ellipse class="st6" cx="173.4" cy="259.4" rx="80.6" ry="24.8"/>
<path class="st7" d="M188.1,230.8H149c-15.7,0-28.5-12.8-28.5-28.5v-73.5c0-15.7,12.8-28.5,28.5-28.5h39.1
	c15.7,0,28.5,12.8,28.5,28.5v73.5C216.7,218,203.8,230.8,188.1,230.8z"/>
<path class="st8" d="M233.6,70.7c-9.5,0.2-43.7-12.5-43.7-12.5l0,0c-5-6.2-12.6-10.3-21.2-10.3c-8.7,0-16.5,4.1-21.5,10.5
	c-5.1,2-34.2,12.5-42.9,12.3c-9.5-0.2-5.4,15.6-5.4,15.6s1.8,4.4,6.3,5.1c4.3,0.7,35.7,0,44.7,3.2c4.9,4.7,11.5,7.5,18.7,7.5
	c7.1,0,13.5-2.7,18.3-7.1l0,0c7.5-3.7,41.2-2.9,45.7-3.6s6.3-5.1,6.3-5.1S243.1,70.5,233.6,70.7z"/>
<circle class="st9" cx="168.7" cy="82.2" r="19.8"/>
<path class="st10" d="M170.1,271.2h-2.3c-10.1,0-18.4-8.3-18.4-18.4v-19.7c0-10.1,8.3-18.4,18.4-18.4h2.3c10.1,0,18.4,8.3,18.4,18.4
	v19.7C188.5,263,180.2,271.2,170.1,271.2z"/>
<circle class="st10" cx="104.5" cy="36.6" r="11.6"/>
<path class="st11" d="M115.1,41.4c0,0,12.7,0.2,16.5,2.1c3.8,1.9,10,17.1,10,17.1"/>
<circle class="st10" cx="232.6" cy="36.6" r="11.6"/>
<path class="st11" d="M222,41.4c0,0-12.7,0.2-16.5,2.1c-3.8,1.9-10,17.1-10,17.1"/>
</svg>
