<svg xmlns="http://www.w3.org/2000/svg" xmlns:xlink="http://www.w3.org/1999/xlink" id="圖層_1" data-name="圖層 1" viewBox="0 0 321.1 303.03">
    <defs>
        <style>
            .cls-1 {
                fill: #e8ba00;
                stroke: #0f0707;
            }

            .cls-1,
            .cls-7 {
                stroke-width: 5px;
            }

            .cls-2,
            .cls-5,
            .cls-7,
            .cls-8 {
                fill: #ffd767;
            }

            .cls-2 {
                stroke: #230707;
                stroke-miterlimit: 4.58;
                stroke-width: 3.66px;
            }

            .cls-3 {
                fill: #153832;
                stroke: #fff;
            }

            .cls-10 {
                fill: #3e78ff;
            }


            .cls-4 {
                fill: #f0f0f2;
                stroke: #070404;
            }

            .cls-15,
            .cls-4,
            .cls-8 {
                stroke-width: 3px;
            }

            .cls-11,
            .cls-12,
            .cls-18,
            .cls-5,
            .cls-6,
            .cls-7,
            .cls-8 {
                stroke: #000;
            }

            .cls-15,
            .cls-5,
            .cls-6,
            .cls-8 {
                stroke-linecap: round;
                stroke-linejoin: round;
            }

            .cls-12,
            .cls-5,
            .cls-6 {
                stroke-width: 4px;
            }

            .cls-15,
            .cls-18,
            .cls-6 {
                fill: none;
            }

            .cls-12,
            .cls-9 {
                fill: #fff;
            }

            .cls-11 {
                fill: #f0f0f2;
            }

            .cls-11,
            .cls-18 {
                stroke-width: 2px;
            }

            .cls-13 {
                fill: #db0dee;
            }

            .cls-14 {
                fill: #ffe700;
            }

            .cls-15 {
                stroke: #cc2a09;
            }

            .cls-16,
            .cls-17 {
                isolation: isolate;
            }

            .cls-16 {
                font-size: 49.99px;
                font-family: Castellar;
            }
        </style>
    </defs>
    <ellipse class="cls-1" cx="172.9" cy="256.43" rx="85.7" ry="44.1"/>
    <circle class="cls-2" cx="171" cy="76.83" r="48.6"/>
    <circle class="cls-3" cx="187.9" cy="83.33" r="6.4"/>
    <circle class="cls-3" cx="156.1" cy="83.33" r="6.4"/>
    <path class="cls-4" d="M118.1,68.2c25.4,22.4,86,17.5,105.4-5-68.1-76.4-73.4-46.3-77-30.5S115.7,59.6,118.1,68.2Z" transform="translate(0 -11.87)"/>
    <path class="cls-5" d="M157.8,242.4c18.6-8.5,10,36-.6,36.3C138,281.3,138.7,260.6,157.8,242.4Z" transform="translate(0 -11.87)"/>
    <path class="cls-5" d="M180.4,243.6c20.9-8.2,17,35.2,5,35.5C163.2,277.1,184.1,247.2,180.4,243.6Z" transform="translate(0 -11.87)"/>
    <path class="cls-6" d="M125,147.6l.3,93.3a11.74,11.74,0,0,0,11.78,11.7H203.4A11.79,11.79,0,0,0,215.2,241l.9-94.1" transform="translate(0 -11.87)"/>
    <path class="cls-7" d="M125.2,179.1c-9.5,11.8-28-.5-30.3-22.7C87.9,150.9,99.3,136.3,125.2,179.1Z" transform="translate(0 -11.87)"/>
    <path class="cls-8" d="M217.3,178.3c25.3,32.3,75.1,11.9,54.4-.8C254.7,184.3,219.946,168.7,217.3,178.3Z" transform="translate(0 -11.87)"/>
    <path class="cls-9" d="M126.78,147.3h87.54V239a13.09,13.09,0,0,1-13,13.18H139.78a13.09,13.09,0,0,1-13-13.18Z" transform="translate(0 -11.87)"/>


    <!-- <path class="cls-10"
        d="M127.19,226.91h87.08a0,0,0,0,1,0,0v0.41a13,13,0,0,1-13,13H140.19a13,13,0,0,1-13-13V166.91A0,0,0,0,1,127.19,166.91Z" /> -->


    <path class="cls-11" d="M1,40.6c16.2,21.8,61.7-4.8,94,0v57c-26.9-18-76.2,18-94,0Z" transform="translate(0 -11.87)"/>
    <path class="cls-12" d="M247.8,83.6h65.5c3.2,0,5.8,2.2,5.8,4.9v81.3c0,2.7-2.6,4.9-5.8,4.9H247.8c-3.2,0-5.8-2.2-5.8-4.9V88.5C242,85.8,244.6,83.6,247.8,83.6Z" transform="translate(0 -11.87)"/>
    <path class="cls-6" d="M261.2,83.8s9.8-30.2,18.5-29.7,19.7,29.7,19.7,29.7" transform="translate(0 -11.87)"/>
    <path class="cls-13" d="M244,130.3h70.8c1.2,0,2.1,1.3,2.2,2.9h0v36.5c0,1.6-1,2.9-2.2,2.9H246.1c-1.2,0-2.1-1.3-2.2-2.9h0V130.3Z" transform="translate(0 -11.87)"/>
    <path class="cls-14" d="M317,130.3l-69.8-.7c-1.7,0-3.2-2.2-3.2-4.8V90.5c0-2.7,1.4-4.9,3.2-4.8h0l66.6.1c1.8,0,3.2,2.2,3.2,4.8h0Z" transform="translate(0 -11.87)"/>


    <path class="cls-15" d="M152,111.4c6.2,17.3,31.4,17.9,38,0" transform="translate(0 -11.87)"/><text class="cls-16" transform="translate(156.57 59.63) scale(0.96 1)"/>



    <image class="cls-17" width="1200" height="798" transform="translate(16.64 39.32) scale(0.05)" xlink:href="Metro_Logo.png"/>
    <line class="cls-18" x1="95" y1="28.13" x2="95" y2="208.73"/>
    <path class="cls-13" d="M314.8,130.3H245.9a2.11,2.11,0,0,0-2.1,2.1v38.3a2.11,2.11,0,0,0,2.1,2.1h68.9a2.11,2.11,0,0,0,2.1-2.1V132.4A2.18,2.18,0,0,0,314.8,130.3Z" transform="translate(0 -11.87)"/>
    <rect class="cls-14" x="244" y="73.73" width="73" height="44.8"/>
</svg>