<?xml version="1.0" encoding="utf-8"?>
<!-- Generator: Adobe Illustrator 24.0.1, SVG Export Plug-In . SVG Version: 6.00 Build 0)  -->
<svg version="1.1" id="圖層_1" xmlns="http://www.w3.org/2000/svg" xmlns:xlink="http://www.w3.org/1999/xlink" x="0px" y="0px"
	 viewBox="0 0 321.1 303" style="enable-background:new 0 0 321.1 303;" xml:space="preserve">
<style type="text/css">
	.st0{display:none;}
	.st1{display:inline;fill:#E8BA00;stroke:#0F0707;stroke-width:5;}
	.st2{display:inline;fill:#FFD767;stroke:#000000;stroke-width:4;stroke-linecap:round;stroke-linejoin:round;}
	.st3{display:inline;fill:none;stroke:#000000;stroke-width:4;stroke-linecap:round;stroke-linejoin:round;}
	.st4{display:inline;fill:#FFFFFF;}
	.st5{display:inline;fill:#3E78FF;}
	.st6{fill:#FFD767;stroke:#230707;stroke-width:3.66;stroke-miterlimit:4.58;}
	.st7{fill:#F0F0F2;stroke:#070404;stroke-width:4;}
	.st8{fill:#CC2A09;stroke:#231815;stroke-width:4;stroke-linecap:round;stroke-linejoin:round;}
	.st9{fill:#FFFFFF;stroke:#0F0707;stroke-width:4;}
	.st10{fill:#FFFFFF;stroke:#000000;stroke-width:4;stroke-linecap:round;stroke-linejoin:round;}
	.st11{fill:#E8BA00;stroke:#0F0707;stroke-width:4;}
	.st12{fill:none;stroke:#000000;stroke-width:6;stroke-linecap:round;stroke-linejoin:round;}
	.st13{fill:none;stroke:#000000;stroke-width:4;stroke-linecap:round;stroke-linejoin:round;}
</style>
<g id="圖層_1_1_" class="st0">
	<ellipse class="st1" cx="-168.2" cy="256.4" rx="85.7" ry="44.1"/>
	<path class="st2" d="M-183.3,230.5c18.6-8.5,10,36-0.6,36.3C-203.1,269.4-202.4,248.7-183.3,230.5z"/>
	<path class="st2" d="M-160.7,231.7c20.9-8.2,17,35.2,5,35.5C-177.9,265.2-157,235.3-160.7,231.7z"/>
	<path class="st3" d="M-216.1,135.7l0.3,93.3c0,6.5,5.3,11.7,11.8,11.7l0,0h66.3c6.4,0,11.7-5.2,11.8-11.6l0.9-94.1"/>
	<path class="st4" d="M-214.3,135.4h87.5v91.7c0,7.2-5.8,13.1-13,13.2l0,0h-61.5c-7.2,0-13-6-13-13.2l0,0V135.4z"/>
	<path class="st5" d="M-213.9,226.9h87.1l0,0v0.4c0,7.2-5.8,13-13,13l0,0h-61.1c-7.2,0-13-5.8-13-13l0,0v-60.4l0,0V226.9z"/>
</g>
<circle class="st6" cx="207.9" cy="81.1" r="17.3"/>
<circle class="st6" cx="113.3" cy="81.1" r="17.3"/>
<path class="st7" d="M242.6,246.5c0-5.1-8.7-11.2-20.8-11.2c6.1-5.1,18.2-59.7,14.3-89.2c-3.9-29.5-44-39.5-44-39.5l-29.5-8.9v-1.3
	l-2.1,0.6l-2.1-0.6v1.3l-29.5,8.9c0,0-40.1,10-44,39.5c-3.9,29.5,8.2,84.1,14.3,89.2c-12.2,0-20.8,6.1-20.8,11.2s-0.4,6.1,4.3,6.1
	c4.1,0,59.7,0,75.6,0c2.7,0,4.3,0,4.3,0c15.9,0,71.5,0,75.6,0C243.1,252.6,242.6,251.6,242.6,246.5z"/>
<path class="st7" d="M182.8,131.8h-44.4c-8.1,0-14.8-6.7-14.8-14.8V65.2c0-8.1,6.7-14.8,14.8-14.8h44.4c8.1,0,14.8,6.7,14.8,14.8
	v51.7C197.6,125.1,190.9,131.8,182.8,131.8z"/>
<path class="st8" d="M188.6,71.7c0-7-6.4-12.8-14.3-12.8c-6.6,0-12.2,4.1-13.8,9.6C159,63,153.4,59,146.8,59
	c-7.9,0-14.3,5.7-14.3,12.8c0,6.3,5.2,11.6,12,12.6c0,0,0,0,0,0c0,0-9.4,6.9-5.8,18.2c16.9,0,22.4,0,22.4,0l0-0.1l0,0.1
	c0,0,5.5,0,22.4,0c3.6-11.3-5.8-18.2-5.8-18.2c0-0.1,0-0.1,0-0.2C183.9,82.8,188.6,77.8,188.6,71.7z"/>
<path class="st9" d="M186.8,252.6h-52.4c-6.6,0-12-5.4-12-12V158c0-6.6,5.4-12,12-12h52.4c6.6,0,12,5.4,12,12v82.6
	C198.8,247.2,193.4,252.6,186.8,252.6z"/>
<line class="st10" x1="88.9" y1="251.4" x2="93.3" y2="241.1"/>
<line class="st10" x1="97.9" y1="251.4" x2="102.3" y2="241.1"/>
<line class="st10" x1="106.9" y1="251.4" x2="111.3" y2="241.1"/>
<path class="st11" d="M142.6,108.9c-2.3,0-3.5,2.7-2.1,4.4c4,4.9,11.5,8.1,20,8.1s16.1-3.3,20-8.1c1.5-1.8,0.2-4.4-2.1-4.4H142.6z"
	/>
<line class="st12" x1="143.5" y1="70.8" x2="152.8" y2="75.3"/>
<line class="st12" x1="177.2" y1="70.8" x2="167.9" y2="75.3"/>
<line class="st13" x1="153.5" y1="93.3" x2="158.4" y2="96.4"/>
<line class="st13" x1="168.4" y1="93.3" x2="163.5" y2="96.4"/>
<path class="st13" d="M84.3,163.3c0,0,11.6,66.6,24.8,72c13.2,5.4,13.2,5.4,13.2,5.4v-47.2"/>
<line class="st10" x1="122.7" y1="161.2" x2="113.7" y2="154.6"/>
<line class="st10" x1="223" y1="251.4" x2="218.7" y2="241.1"/>
<line class="st10" x1="232.2" y1="251.4" x2="227.8" y2="241.1"/>
<line class="st10" x1="214" y1="251.4" x2="209.6" y2="241.1"/>
<path class="st13" d="M236.7,163.3c0,0-11.6,66.6-24.8,72c-13.2,5.4-13.2,5.4-13.2,5.4v-47.2"/>
<line class="st10" x1="198.3" y1="161.2" x2="207.2" y2="154.6"/>
<line class="st13" x1="106.9" y1="77.5" x2="123.5" y2="86.6"/>
<line class="st13" x1="214.5" y1="77.5" x2="197.9" y2="86.6"/>
</svg>
