<svg version="1.1" id="Layer_1" xmlns="http://www.w3.org/2000/svg" xmlns:xlink="http://www.w3.org/1999/xlink" x="0px" y="0px"
	 width="100%" viewBox="0 0 210 139" enable-background="new 0 0 210 139" xml:space="preserve">
<path fill="#2F528F" opacity="1.000000" stroke="none" 
	d="
M1.000000,56.000000 
	C1.000000,37.333336 1.000000,19.166674 1.000000,1.000007 
	C70.999985,1.000005 140.999969,1.000005 210.999969,1.000002 
	C210.999969,47.333309 210.999969,93.666618 210.999985,139.999939 
	C141.000031,139.999969 71.000076,139.999969 1.000055,139.999985 
	C1.000000,112.166664 1.000000,84.333336 1.000000,56.000000 
M5.994827,69.500000 
	C5.994827,91.246109 5.994827,112.992218 5.994827,134.692780 
	C72.997147,134.692780 139.356125,134.692780 205.683807,134.692780 
	C205.683807,91.675163 205.683807,48.970718 205.683807,6.307141 
	C139.002991,6.307141 72.644012,6.307141 5.994827,6.307141 
	C5.994827,27.245447 5.994827,47.872723 5.994827,69.500000 
z"/>
<path fill="#FCFEFE" opacity="1.000000" stroke="none" 
	d="
M5.994827,69.000000 
	C5.994827,47.872723 5.994827,27.245447 5.994827,6.307141 
	C72.644012,6.307141 139.002991,6.307141 205.683807,6.307141 
	C205.683807,48.970718 205.683807,91.675163 205.683807,134.692780 
	C139.356125,134.692780 72.997147,134.692780 5.994827,134.692780 
	C5.994827,112.992218 5.994827,91.246109 5.994827,69.000000 
M174.029083,29.567827 
	C167.831894,21.018038 159.086899,16.481243 149.119308,14.069559 
	C133.317780,10.246335 117.627304,11.739594 102.188049,15.990228 
	C72.318413,24.213739 46.617546,39.037029 27.814047,64.328629 
	C25.384815,67.596069 23.441561,71.224808 20.662010,75.661819 
	C28.808531,75.661819 35.741020,75.519386 42.662979,75.727402 
	C45.707188,75.818878 47.306068,74.795670 48.916180,72.129349 
	C52.084938,66.881912 55.398449,61.545780 59.570847,57.110691 
	C78.710030,36.766518 102.473633,24.917561 130.157089,22.369495 
	C150.612976,20.486679 169.774048,23.541109 178.598083,47.004063 
	C180.226440,40.166241 177.397415,35.149780 174.029083,29.567827 
M113.292999,129.925125 
	C150.054398,121.000458 180.471069,103.004593 201.474945,68.743660 
	C192.837860,68.743660 185.728439,68.525612 178.649429,68.893150 
	C176.822784,68.987976 174.329773,70.489639 173.429199,72.075523 
	C155.604446,103.463943 111.979111,126.058617 76.126656,121.820114 
	C60.985104,120.030075 48.599419,113.831490 43.917488,97.693909 
	C43.833618,97.404816 43.139942,97.292641 42.010197,96.754944 
	C42.181591,98.630669 42.178730,100.019684 42.450089,101.352882 
	C45.745243,117.542160 56.801796,125.958878 71.836357,129.895798 
	C85.289673,133.418655 98.903175,132.660660 113.292999,129.925125 
M130.697357,71.730637 
	C130.509277,70.608505 130.321198,69.486374 129.977203,67.433945 
	C139.558258,67.433945 148.794418,67.433945 158.030594,67.433945 
	C158.007584,66.954216 157.984573,66.474495 157.961563,65.994766 
	C135.314957,65.994766 112.668350,65.994766 88.442909,65.994766 
	C100.338249,57.354679 114.462250,52.866207 116.822777,36.949116 
	C110.262825,36.949116 103.766838,37.107777 97.284676,36.877583 
	C94.346863,36.773251 92.868271,37.832310 91.598282,40.409573 
	C86.742386,50.263870 81.534035,59.945156 76.723396,69.820671 
	C75.276947,72.789993 73.593887,74.007080 70.239578,73.789673 
	C65.377861,73.474564 60.480530,73.708939 55.598385,73.708939 
	C55.604530,74.323036 55.610676,74.937126 55.616821,75.551224 
	C74.156616,75.551224 92.696411,75.551224 111.236206,75.551224 
	C109.559402,77.743660 107.586151,78.621246 105.994972,79.954742 
	C105.059242,80.738922 104.058693,82.361710 104.237373,83.411583 
	C105.428375,90.409645 106.929588,97.354927 108.313385,104.234650 
	C118.060921,104.234650 127.305794,104.234650 136.929565,104.234650 
	C134.857956,93.428528 132.858765,83.000114 130.697357,71.730637 
M157.305298,44.812622 
	C160.255463,42.800762 163.205627,40.788906 167.450775,37.893936 
	C157.822769,37.893936 149.750839,37.757580 141.689148,37.984573 
	C139.526016,38.045479 137.117950,38.781593 135.295181,39.947212 
	C127.034210,45.229927 118.933975,50.764687 110.801208,56.246311 
	C109.846962,56.889484 109.049057,57.764629 107.792488,58.872829 
	C133.728027,60.618786 133.728180,60.619019 154.219528,46.874001 
	C155.047958,46.318310 155.867996,45.750122 157.305298,44.812622 
M89.356071,92.916733 
	C91.089760,89.428345 92.823448,85.939957 94.860878,81.840401 
	C86.841751,81.840401 79.723747,81.803055 72.607231,81.889252 
	C71.750259,81.899628 70.457909,82.343185 70.116905,82.984512 
	C66.438148,89.903137 62.909752,96.901718 58.994801,104.553627 
	C63.756889,104.553627 67.478439,104.055344 71.016243,104.650055 
	C80.425140,106.231689 86.471680,102.892685 89.356071,92.916733 
z"/>
<path fill="#0697DF" opacity="1.000000" stroke="none" 
	d="
M174.236877,29.866344 
	C177.397415,35.149780 180.226440,40.166241 178.598083,47.004063 
	C169.774048,23.541109 150.612976,20.486679 130.157089,22.369495 
	C102.473633,24.917561 78.710030,36.766518 59.570847,57.110691 
	C55.398449,61.545780 52.084938,66.881912 48.916180,72.129349 
	C47.306068,74.795670 45.707188,75.818878 42.662979,75.727402 
	C35.741020,75.519386 28.808531,75.661819 20.662010,75.661819 
	C23.441561,71.224808 25.384815,67.596069 27.814047,64.328629 
	C46.617546,39.037029 72.318413,24.213739 102.188049,15.990228 
	C117.627304,11.739594 133.317780,10.246335 149.119308,14.069559 
	C159.086899,16.481243 167.831894,21.018038 174.236877,29.866344 
z"/>
<path fill="#0697DF" opacity="1.000000" stroke="none" 
	d="
M112.873703,129.990265 
	C98.903175,132.660660 85.289673,133.418655 71.836357,129.895798 
	C56.801796,125.958878 45.745243,117.542160 42.450089,101.352882 
	C42.178730,100.019684 42.181591,98.630669 42.010197,96.754944 
	C43.139942,97.292641 43.833618,97.404816 43.917488,97.693909 
	C48.599419,113.831490 60.985104,120.030075 76.126656,121.820114 
	C111.979111,126.058617 155.604446,103.463943 173.429199,72.075523 
	C174.329773,70.489639 176.822784,68.987976 178.649429,68.893150 
	C185.728439,68.525612 192.837860,68.743660 201.474945,68.743660 
	C180.471069,103.004593 150.054398,121.000458 112.873703,129.990265 
z"/>
<path fill="#09589A" opacity="1.000000" stroke="none" 
	d="
M130.778458,72.151169 
	C132.858765,83.000114 134.857956,93.428528 136.929565,104.234650 
	C127.305794,104.234650 118.060921,104.234650 108.313385,104.234650 
	C106.929588,97.354927 105.428375,90.409645 104.237373,83.411583 
	C104.058693,82.361710 105.059242,80.738922 105.994972,79.954742 
	C107.586151,78.621246 109.559402,77.743660 111.236206,75.551224 
	C92.696411,75.551224 74.156616,75.551224 55.616821,75.551224 
	C55.610676,74.937126 55.604530,74.323036 55.598385,73.708939 
	C60.480530,73.708939 65.377861,73.474564 70.239578,73.789673 
	C73.593887,74.007080 75.276947,72.789993 76.723396,69.820671 
	C81.534035,59.945156 86.742386,50.263870 91.598282,40.409573 
	C92.868271,37.832310 94.346863,36.773251 97.284676,36.877583 
	C103.766838,37.107777 110.262825,36.949116 116.822777,36.949116 
	C114.462250,52.866207 100.338249,57.354679 88.442909,65.994766 
	C112.668350,65.994766 135.314957,65.994766 157.961563,65.994766 
	C157.984573,66.474495 158.007584,66.954216 158.030594,67.433945 
	C148.794418,67.433945 139.558258,67.433945 129.977203,67.433945 
	C130.321198,69.486374 130.509277,70.608505 130.778458,72.151169 
z"/>
<path fill="#055699" opacity="1.000000" stroke="none" 
	d="
M156.998627,45.000191 
	C155.867996,45.750122 155.047958,46.318310 154.219528,46.874001 
	C133.728180,60.619019 133.728027,60.618786 107.792488,58.872829 
	C109.049057,57.764629 109.846962,56.889484 110.801208,56.246311 
	C118.933975,50.764687 127.034210,45.229927 135.295181,39.947212 
	C137.117950,38.781593 139.526016,38.045479 141.689148,37.984573 
	C149.750839,37.757580 157.822769,37.893936 167.450775,37.893936 
	C163.205627,40.788906 160.255463,42.800762 156.998627,45.000191 
z"/>
<path fill="#09589A" opacity="1.000000" stroke="none" 
	d="
M89.194916,93.254501 
	C86.471680,102.892685 80.425140,106.231689 71.016243,104.650055 
	C67.478439,104.055344 63.756889,104.553627 58.994801,104.553627 
	C62.909752,96.901718 66.438148,89.903137 70.116905,82.984512 
	C70.457909,82.343185 71.750259,81.899628 72.607231,81.889252 
	C79.723747,81.803055 86.841751,81.840401 94.860878,81.840401 
	C92.823448,85.939957 91.089760,89.428345 89.194916,93.254501 
z"/>
</svg>