<svg version="1.1" id="Layer_1" xmlns="http://www.w3.org/2000/svg" xmlns:xlink="http://www.w3.org/1999/xlink" x="0px" y="0px"
	 width="100%" viewBox="0 0 85 131" enable-background="new 0 0 85 131" xml:space="preserve">
<path fill="#F6F6F6" opacity="1.000000" stroke="none" 
	d="
M1.000000,54.000000 
	C1.000000,36.000000 1.000000,18.500000 1.000000,1.000000 
	C29.333334,1.000000 57.666668,1.000000 86.000000,1.000000 
	C86.000000,44.666668 86.000000,88.333336 86.000000,132.000000 
	C57.666668,132.000000 29.333334,132.000000 1.000000,132.000000 
	C1.000000,106.166664 1.000000,80.333336 1.000000,54.000000 
M48.499851,129.325119 
	C57.329628,129.324127 66.160477,129.407578 74.988831,129.294769 
	C81.739159,129.208496 84.040977,126.837296 84.045708,120.257797 
	C84.064262,94.434860 84.067986,68.611885 84.042961,42.788956 
	C84.037300,36.942764 81.454643,34.246418 75.642509,34.039665 
	C72.004486,33.910252 68.358116,34.015583 65.205704,34.015583 
	C61.735729,26.632406 58.906487,19.518555 55.178062,12.912174 
	C47.904850,0.024794 40.751202,-0.233269 32.860474,12.180112 
	C28.515284,19.015789 25.145340,26.471395 21.145872,34.005112 
	C18.500515,34.005112 15.339190,33.971752 12.178799,34.011883 
	C5.038265,34.102554 2.577495,36.520943 2.569847,43.634972 
	C2.542625,68.958099 2.545656,94.281281 2.568839,119.604408 
	C2.575695,127.092621 4.789639,129.270554 12.513982,129.308258 
	C24.175686,129.365173 35.837868,129.324387 48.499851,129.325119 
z"/>
<path fill="#060606" opacity="1.000000" stroke="none" 
	d="
M47.999847,129.325119 
	C35.837868,129.324387 24.175686,129.365173 12.513982,129.308258 
	C4.789639,129.270554 2.575695,127.092621 2.568839,119.604408 
	C2.545656,94.281281 2.542625,68.958099 2.569847,43.634972 
	C2.577495,36.520943 5.038265,34.102554 12.178799,34.011883 
	C15.339190,33.971752 18.500515,34.005112 21.145872,34.005112 
	C25.145340,26.471395 28.515284,19.015789 32.860474,12.180112 
	C40.751202,-0.233269 47.904850,0.024794 55.178062,12.912174 
	C58.906487,19.518555 61.735729,26.632406 65.205704,34.015583 
	C68.358116,34.015583 72.004486,33.910252 75.642509,34.039665 
	C81.454643,34.246418 84.037300,36.942764 84.042961,42.788956 
	C84.067986,68.611885 84.064262,94.434860 84.045708,120.257797 
	C84.040977,126.837296 81.739159,129.208496 74.988831,129.294769 
	C66.160477,129.407578 57.329628,129.324127 47.999847,129.325119 
M7.144414,67.288246 
	C7.171380,76.628036 7.198346,85.967834 7.078999,96.195587 
	C7.078999,106.069542 7.078999,115.943497 7.078999,125.730331 
	C31.580326,125.730331 55.285625,125.730331 79.235542,125.730331 
	C79.235542,115.447388 79.235542,105.384949 79.364449,94.339455 
	C79.343941,84.939323 79.323441,75.539200 79.487312,65.206429 
	C79.487312,56.114662 79.487312,47.022892 79.487312,38.013268 
	C55.027931,38.013268 31.194380,38.013268 7.229122,38.013268 
	C7.229122,47.837837 7.229122,57.121861 7.144414,67.288246 
M29.416229,31.389391 
	C29.962132,32.257454 30.494713,33.871967 31.055927,33.881989 
	C39.949261,34.040684 48.846260,33.993580 59.200336,33.993580 
	C55.111408,26.476574 51.682728,19.769707 47.858540,13.296493 
	C45.613960,9.497087 42.382069,9.520112 40.041119,13.171338 
	C36.397797,18.853903 33.205521,24.825651 29.416229,31.389391 
z"/>
<path fill="#D60DED" opacity="1.000000" stroke="none" 
	d="
M79.235542,95.322510 
	C79.235542,105.384949 79.235542,115.447388 79.235542,125.730331 
	C55.285625,125.730331 31.580326,125.730331 7.078999,125.730331 
	C7.078999,115.943497 7.078999,106.069542 7.606147,95.730682 
	C31.834044,95.284698 55.534794,95.303604 79.235542,95.322510 
z"/>
<path fill="#071EFB" opacity="1.000000" stroke="none" 
	d="
M79.299995,94.830978 
	C55.534794,95.303604 31.834044,95.284698 7.679303,95.286705 
	C7.198346,85.967834 7.171380,76.628036 7.637755,66.851166 
	C31.855042,66.322411 55.578987,66.230743 79.302933,66.139069 
	C79.323441,75.539200 79.343941,84.939323 79.299995,94.830978 
z"/>
<path fill="#FCE501" opacity="1.000000" stroke="none" 
	d="
M79.395126,65.672745 
	C55.578987,66.230743 31.855042,66.322411 7.680109,66.409981 
	C7.229122,57.121861 7.229122,47.837837 7.229122,38.013268 
	C31.194380,38.013268 55.027931,38.013268 79.487312,38.013268 
	C79.487312,47.022892 79.487312,56.114662 79.395126,65.672745 
z"/>
<path fill="#FCFCFC" opacity="1.000000" stroke="none" 
	d="
M29.619156,31.032112 
	C33.205521,24.825651 36.397797,18.853903 40.041119,13.171338 
	C42.382069,9.520112 45.613960,9.497087 47.858540,13.296493 
	C51.682728,19.769707 55.111408,26.476574 59.200336,33.993580 
	C48.846260,33.993580 39.949261,34.040684 31.055927,33.881989 
	C30.494713,33.871967 29.962132,32.257454 29.619156,31.032112 
z"/>
</svg>